<svg viewBox="0 0 84 80" xmlns="http://www.w3.org/2000/svg">
    <path d="M83.3333333,25 L66.6666667,25 L66.6666667,16.6666667 C66.6666667,12.0416667 62.9583333,8.33333333 58.3333333,8.33333333 L41.6666667,8.33333333 C37.0416667,8.33333333 33.3333333,12.0416667 33.3333333,16.6666667 L33.3333333,25 L16.6666667,25 C12.0416667,25 8.375,28.7083333 8.375,33.3333333 L8.33333333,79.1666667 C8.33333333,83.7916667 12.0416667,87.5 16.6666667,87.5 L83.3333333,87.5 C87.9583333,87.5 91.6666667,83.7916667 91.6666667,79.1666667 L91.6666667,33.3333333 C91.6666667,28.7083333 87.9583333,25 83.3333333,25 Z M58.3333333,25 L41.6666667,25 L41.6666667,16.6666667 L58.3333333,16.6666667 L58.3333333,25 Z"></path>
</svg>