<svg width="92px" height="50px" viewBox="0 0 92 50" version="1.1" xmlns="http://www.w3.org/2000/svg" xmlns:xlink="http://www.w3.org/1999/xlink">
    <g id="Page-1" stroke="none" stroke-width="1" fill="none" fill-rule="evenodd" transform="translate(-4, -25)">
        <path d="M52.7083333,41.6666667 C49.2916667,31.9583333 40.0416667,25 29.1666667,25 C15.375,25 4.16666667,36.2083333 4.16666667,50 C4.16666667,63.7916667 15.375,75 29.1666667,75 C40.0416667,75 49.2916667,68.0416667 52.7083333,58.3333333 L70.8333333,58.3333333 L70.8333333,75 L87.5,75 L87.5,58.3333333 L95.8333333,58.3333333 L95.8333333,41.6666667 L52.7083333,41.6666667 Z M29.1666667,58.3333333 C24.5833333,58.3333333 20.8333333,54.5833333 20.8333333,50 C20.8333333,45.4166667 24.5833333,41.6666667 29.1666667,41.6666667 C33.75,41.6666667 37.5,45.4166667 37.5,50 C37.5,54.5833333 33.75,58.3333333 29.1666667,58.3333333 Z" id="Shape" fill="#34CC99" fill-rule="nonzero"></path>
    </g>
</svg>